<svg xmlns="http://www.w3.org/2000/svg" width="1200" height="620" viewBox="0 0 1200 620" role="img" aria-label="Risk feedback learning curves"><rect width="100%" height="100%" fill="#f8fafc"/>
<text x="40.00" y="46.00" font-family="Inter,Arial,sans-serif" font-size="24" font-weight="800" fill="#0f172a" text-anchor="start">Rolling risk-gate rate and calibration score by feedback condition</text>
<rect x="55" y="90" width="525" height="430" rx="8" fill="#ffffff" stroke="#d9e2ec"/><text x="73.00" y="118.00" font-family="Inter,Arial,sans-serif" font-size="15" font-weight="800" fill="#0f172a" text-anchor="start">svb_2023</text>
<line x1="97" y1="476" x2="548" y2="476" stroke="#cbd5e1"/>
<line x1="97" y1="148" x2="97" y2="476" stroke="#cbd5e1"/>
<polyline fill="none" stroke="#059669" stroke-width="2.4" points="97.0,433.3 138.0,323.0 179.0,349.9 220.0,357.2 261.0,369.6 302.0,376.7 343.0,383.4 384.0,389.3 425.0,387.2 466.0,402.1 507.0,405.2 548.0,409.2"/>
<polyline fill="none" stroke="#d97706" stroke-width="2.4" points="97.0,433.3 138.0,338.6 179.0,369.4 220.0,380.6 261.0,389.8 302.0,397.5 343.0,403.8 384.0,408.6 425.0,408.5 466.0,424.8 507.0,426.1 548.0,426.7"/>
<polyline fill="none" stroke="#64748b" stroke-width="2.4" points="97.0,436.3 138.0,340.1 179.0,369.8 220.0,383.7 261.0,390.9 302.0,398.1 343.0,404.2 384.0,409.2 425.0,408.8 466.0,424.2 507.0,425.8 548.0,425.1"/>
<rect x="420" y="108" width="10" height="10" fill="#059669"/><text x="436.00" y="118.00" font-family="Inter,Arial,sans-serif" font-size="11" font-weight="400" fill="#334155" text-anchor="start">true</text><rect x="420" y="126" width="10" height="10" fill="#d97706"/><text x="436.00" y="136.00" font-family="Inter,Arial,sans-serif" font-size="11" font-weight="400" fill="#334155" text-anchor="start">placebo</text><rect x="420" y="144" width="10" height="10" fill="#64748b"/><text x="436.00" y="154.00" font-family="Inter,Arial,sans-serif" font-size="11" font-weight="400" fill="#334155" text-anchor="start">hidden</text>
<text x="97.00" y="500.00" font-family="Inter,Arial,sans-serif" font-size="12" font-weight="400" fill="#64748b" text-anchor="start">rolling calibration score</text>
<rect x="640" y="90" width="525" height="430" rx="8" fill="#ffffff" stroke="#d9e2ec"/><text x="658.00" y="118.00" font-family="Inter,Arial,sans-serif" font-size="15" font-weight="800" fill="#0f172a" text-anchor="start">tech_rates_2022</text>
<line x1="682" y1="476" x2="1133" y2="476" stroke="#cbd5e1"/>
<line x1="682" y1="148" x2="682" y2="476" stroke="#cbd5e1"/>
<polyline fill="none" stroke="#059669" stroke-width="2.4" points="682.0,434.8 723.0,437.5 764.0,440.0 805.0,424.8 846.0,431.0 887.0,423.1 928.0,423.3 969.0,425.6 1010.0,423.6 1051.0,413.7 1092.0,414.7 1133.0,420.0"/>
<polyline fill="none" stroke="#d97706" stroke-width="2.4" points="682.0,434.8 723.0,446.7 764.0,445.9 805.0,447.8 846.0,450.3 887.0,452.7 928.0,453.4 969.0,454.2 1010.0,454.5 1051.0,452.8 1092.0,451.9 1133.0,452.4"/>
<polyline fill="none" stroke="#64748b" stroke-width="2.4" points="682.0,441.7 723.0,451.1 764.0,448.6 805.0,450.6 846.0,437.2 887.0,441.0 928.0,443.7 969.0,446.4 1010.0,446.8 1051.0,445.3 1092.0,446.5 1133.0,446.2"/>
<rect x="1005" y="108" width="10" height="10" fill="#059669"/><text x="1021.00" y="118.00" font-family="Inter,Arial,sans-serif" font-size="11" font-weight="400" fill="#334155" text-anchor="start">true</text><rect x="1005" y="126" width="10" height="10" fill="#d97706"/><text x="1021.00" y="136.00" font-family="Inter,Arial,sans-serif" font-size="11" font-weight="400" fill="#334155" text-anchor="start">placebo</text><rect x="1005" y="144" width="10" height="10" fill="#64748b"/><text x="1021.00" y="154.00" font-family="Inter,Arial,sans-serif" font-size="11" font-weight="400" fill="#334155" text-anchor="start">hidden</text>
<text x="682.00" y="500.00" font-family="Inter,Arial,sans-serif" font-size="12" font-weight="400" fill="#64748b" text-anchor="start">rolling calibration score</text>
</svg>