<svg xmlns="http://www.w3.org/2000/svg" width="1200" height="680" viewBox="0 0 1200 680" role="img" aria-label="Intraday Portfolio Summary"><rect width="100%" height="100%" fill="#f8fafc"/>
<text x="40.00" y="48.00" font-family="Inter,Arial,sans-serif" font-size="24" font-weight="800" text-anchor="start" fill="#111827">51-stock intraday probe: concentration and risk-gate pressure</text>
<rect x="40" y="100" width="340" height="470" rx="8" fill="#ffffff" stroke="#e5e7eb"/>
<text x="58.00" y="128.00" font-family="Inter,Arial,sans-serif" font-size="15" font-weight="700" text-anchor="start" fill="#111827">(a) Mean Herfindahl</text>
<line x1="92" y1="506.00" x2="350" y2="506.00" stroke="#d1d5db" stroke-width="1"/>
<line x1="92" y1="154" x2="92" y2="506" stroke="#111827" stroke-width="1"/>
<line x1="92" y1="506" x2="350" y2="506" stroke="#111827" stroke-width="1"/>
<rect x="106.19" y="383.98" width="36.12" height="122.02" rx="3" fill="#7c3aed"/>
<text x="124.25" y="530.00" font-family="Inter,Arial,sans-serif" font-size="11" font-weight="400" text-anchor="middle" fill="#111827">Buy-hold</text>
<text x="124.25" y="375.98" font-family="Inter,Arial,sans-serif" font-size="10" font-weight="400" text-anchor="middle" fill="#111827">0.019</text>
<rect x="170.69" y="357.67" width="36.12" height="148.33" rx="3" fill="#7c3aed"/>
<text x="188.75" y="530.00" font-family="Inter,Arial,sans-serif" font-size="11" font-weight="400" text-anchor="middle" fill="#111827">MVO</text>
<text x="188.75" y="349.67" font-family="Inter,Arial,sans-serif" font-size="10" font-weight="400" text-anchor="middle" fill="#111827">0.023</text>
<rect x="235.19" y="216.58" width="36.12" height="289.42" rx="3" fill="#7c3aed"/>
<text x="253.25" y="530.00" font-family="Inter,Arial,sans-serif" font-size="11" font-weight="400" text-anchor="middle" fill="#111827">GPT-5.5</text>
<text x="253.25" y="208.58" font-family="Inter,Arial,sans-serif" font-size="10" font-weight="400" text-anchor="middle" fill="#111827">0.045</text>
<rect x="299.69" y="282.09" width="36.12" height="223.91" rx="3" fill="#7c3aed"/>
<text x="317.75" y="530.00" font-family="Inter,Arial,sans-serif" font-size="11" font-weight="400" text-anchor="middle" fill="#111827">Gemini</text>
<text x="317.75" y="274.09" font-family="Inter,Arial,sans-serif" font-size="10" font-weight="400" text-anchor="middle" fill="#111827">0.035</text>
<text x="86.00" y="158.00" font-family="Inter,Arial,sans-serif" font-size="10" font-weight="400" text-anchor="end" fill="#6b7280">0.055</text>
<text x="86.00" y="510.00" font-family="Inter,Arial,sans-serif" font-size="10" font-weight="400" text-anchor="end" fill="#6b7280">0.000</text>
<rect x="430" y="100" width="340" height="470" rx="8" fill="#ffffff" stroke="#e5e7eb"/>
<text x="448.00" y="128.00" font-family="Inter,Arial,sans-serif" font-size="15" font-weight="700" text-anchor="start" fill="#111827">(b) Risk-clipped decisions</text>
<line x1="482" y1="506.00" x2="740" y2="506.00" stroke="#d1d5db" stroke-width="1"/>
<line x1="482" y1="154" x2="482" y2="506" stroke="#111827" stroke-width="1"/>
<line x1="482" y1="506" x2="740" y2="506" stroke="#111827" stroke-width="1"/>
<rect x="496.19" y="281.60" width="36.12" height="224.40" rx="3" fill="#dc2626"/>
<text x="514.25" y="530.00" font-family="Inter,Arial,sans-serif" font-size="11" font-weight="400" text-anchor="middle" fill="#111827">Buy-hold</text>
<text x="514.25" y="273.60" font-family="Inter,Arial,sans-serif" font-size="10" font-weight="400" text-anchor="middle" fill="#111827">2040</text>
<rect x="560.69" y="466.73" width="36.12" height="39.27" rx="3" fill="#dc2626"/>
<text x="578.75" y="530.00" font-family="Inter,Arial,sans-serif" font-size="11" font-weight="400" text-anchor="middle" fill="#111827">MVO</text>
<text x="578.75" y="458.73" font-family="Inter,Arial,sans-serif" font-size="10" font-weight="400" text-anchor="middle" fill="#111827">357</text>
<rect x="625.19" y="184.36" width="36.12" height="321.64" rx="3" fill="#dc2626"/>
<text x="643.25" y="530.00" font-family="Inter,Arial,sans-serif" font-size="11" font-weight="400" text-anchor="middle" fill="#111827">GPT-5.5</text>
<text x="643.25" y="176.36" font-family="Inter,Arial,sans-serif" font-size="10" font-weight="400" text-anchor="middle" fill="#111827">2924</text>
<rect x="689.69" y="374.00" width="36.12" height="132.00" rx="3" fill="#dc2626"/>
<text x="707.75" y="530.00" font-family="Inter,Arial,sans-serif" font-size="11" font-weight="400" text-anchor="middle" fill="#111827">Gemini</text>
<text x="707.75" y="366.00" font-family="Inter,Arial,sans-serif" font-size="10" font-weight="400" text-anchor="middle" fill="#111827">1200</text>
<text x="476.00" y="158.00" font-family="Inter,Arial,sans-serif" font-size="10" font-weight="400" text-anchor="end" fill="#6b7280">3200</text>
<text x="476.00" y="510.00" font-family="Inter,Arial,sans-serif" font-size="10" font-weight="400" text-anchor="end" fill="#6b7280">0.000</text>
<rect x="820" y="100" width="340" height="470" rx="8" fill="#ffffff" stroke="#e5e7eb"/>
<text x="838.00" y="128.00" font-family="Inter,Arial,sans-serif" font-size="15" font-weight="700" text-anchor="start" fill="#111827">(c) Total return</text>
<line x1="872" y1="254.57" x2="1130" y2="254.57" stroke="#d1d5db" stroke-width="1"/>
<line x1="872" y1="154" x2="872" y2="506" stroke="#111827" stroke-width="1"/>
<line x1="872" y1="506" x2="1130" y2="506" stroke="#111827" stroke-width="1"/>
<rect x="886.19" y="183.30" width="36.12" height="71.27" rx="3" fill="#2563eb"/>
<text x="904.25" y="530.00" font-family="Inter,Arial,sans-serif" font-size="11" font-weight="400" text-anchor="middle" fill="#111827">Buy-hold</text>
<text x="904.25" y="175.30" font-family="Inter,Arial,sans-serif" font-size="10" font-weight="400" text-anchor="middle" fill="#111827">0.007</text>
<rect x="950.69" y="254.57" width="36.12" height="54.74" rx="3" fill="#2563eb"/>
<text x="968.75" y="530.00" font-family="Inter,Arial,sans-serif" font-size="11" font-weight="400" text-anchor="middle" fill="#111827">MVO</text>
<text x="968.75" y="323.31" font-family="Inter,Arial,sans-serif" font-size="10" font-weight="400" text-anchor="middle" fill="#111827">-0.005</text>
<rect x="1015.19" y="254.57" width="36.12" height="224.19" rx="3" fill="#2563eb"/>
<text x="1033.25" y="530.00" font-family="Inter,Arial,sans-serif" font-size="11" font-weight="400" text-anchor="middle" fill="#111827">GPT-5.5</text>
<text x="1033.25" y="492.76" font-family="Inter,Arial,sans-serif" font-size="10" font-weight="400" text-anchor="middle" fill="#111827">-0.022</text>
<rect x="1079.69" y="254.57" width="36.12" height="53.14" rx="3" fill="#2563eb"/>
<text x="1097.75" y="530.00" font-family="Inter,Arial,sans-serif" font-size="11" font-weight="400" text-anchor="middle" fill="#111827">Gemini</text>
<text x="1097.75" y="321.71" font-family="Inter,Arial,sans-serif" font-size="10" font-weight="400" text-anchor="middle" fill="#111827">-0.005</text>
<text x="866.00" y="158.00" font-family="Inter,Arial,sans-serif" font-size="10" font-weight="400" text-anchor="end" fill="#6b7280">0.010</text>
<text x="866.00" y="510.00" font-family="Inter,Arial,sans-serif" font-size="10" font-weight="400" text-anchor="end" fill="#6b7280">-0.025</text>
</svg>