<svg xmlns="http://www.w3.org/2000/svg" width="1200" height="720" viewBox="0 0 1200 720" role="img" aria-label="Mechanism Probe Summary"><rect width="100%" height="100%" fill="#f8fafc"/>
<text x="40.00" y="48.00" font-family="Inter,Arial,sans-serif" font-size="24" font-weight="800" text-anchor="start" fill="#111827">Mechanism probes: intent geometry, noise robustness, and false-audit trust calibration</text>
<rect x="40" y="100" width="340" height="500" rx="8" fill="#ffffff" stroke="#e5e7eb"/>
<text x="58.00" y="128.00" font-family="Inter,Arial,sans-serif" font-size="15" font-weight="700" text-anchor="start" fill="#111827">(a) CoT-free intent rank delta</text>
<line x1="92" y1="477.23" x2="350" y2="477.23" stroke="#d1d5db" stroke-width="1"/>
<line x1="92" y1="154" x2="92" y2="536" stroke="#111827" stroke-width="1"/>
<line x1="92" y1="536" x2="350" y2="536" stroke="#111827" stroke-width="1"/>
<rect x="110.92" y="186.34" width="48.16" height="290.89" rx="3" fill="#2563eb"/>
<text x="135.00" y="560.00" font-family="Inter,Arial,sans-serif" font-size="11" font-weight="400" text-anchor="middle" fill="#111827">GPT-5.5</text>
<text x="135.00" y="178.34" font-family="Inter,Arial,sans-serif" font-size="10" font-weight="400" text-anchor="middle" fill="#111827">1.98</text>
<rect x="196.92" y="477.23" width="48.16" height="42.46" rx="3" fill="#2563eb"/>
<text x="221.00" y="560.00" font-family="Inter,Arial,sans-serif" font-size="11" font-weight="400" text-anchor="middle" fill="#111827">Gemini</text>
<text x="221.00" y="533.69" font-family="Inter,Arial,sans-serif" font-size="10" font-weight="400" text-anchor="middle" fill="#111827">-0.289</text>
<rect x="282.92" y="428.90" width="48.16" height="48.33" rx="3" fill="#2563eb"/>
<text x="307.00" y="560.00" font-family="Inter,Arial,sans-serif" font-size="11" font-weight="400" text-anchor="middle" fill="#111827">Claude</text>
<text x="307.00" y="420.90" font-family="Inter,Arial,sans-serif" font-size="10" font-weight="400" text-anchor="middle" fill="#111827">0.329</text>
<text x="86.00" y="158.00" font-family="Inter,Arial,sans-serif" font-size="10" font-weight="400" text-anchor="end" fill="#6b7280">2.20</text>
<text x="86.00" y="540.00" font-family="Inter,Arial,sans-serif" font-size="10" font-weight="400" text-anchor="end" fill="#6b7280">-0.400</text>
<rect x="430" y="100" width="340" height="500" rx="8" fill="#ffffff" stroke="#e5e7eb"/>
<text x="448.00" y="128.00" font-family="Inter,Arial,sans-serif" font-size="15" font-weight="700" text-anchor="start" fill="#111827">(b) Noise-injection fused BA</text>
<line x1="482" y1="154" x2="482" y2="536" stroke="#111827" stroke-width="1"/>
<line x1="482" y1="536" x2="740" y2="536" stroke="#111827" stroke-width="1"/>
<line x1="482" y1="459.60" x2="740" y2="459.60" stroke="#dc2626" stroke-width="1.5" stroke-dasharray="5 5"/>
<text x="738.00" y="453.60" font-family="Inter,Arial,sans-serif" font-size="10" font-weight="400" text-anchor="end" fill="#dc2626">BA 0.75</text>
<circle cx="482.00" cy="225.50" r="4" fill="#059669"/>
<text x="482.00" y="215.50" font-family="Inter,Arial,sans-serif" font-size="10" font-weight="400" text-anchor="middle" fill="#111827">0.903</text>
<circle cx="546.50" cy="292.60" r="4" fill="#059669"/>
<text x="546.50" y="282.60" font-family="Inter,Arial,sans-serif" font-size="10" font-weight="400" text-anchor="middle" fill="#111827">0.859</text>
<circle cx="611.00" cy="307.29" r="4" fill="#059669"/>
<text x="611.00" y="297.29" font-family="Inter,Arial,sans-serif" font-size="10" font-weight="400" text-anchor="middle" fill="#111827">0.850</text>
<circle cx="740.00" cy="271.54" r="4" fill="#059669"/>
<text x="740.00" y="261.54" font-family="Inter,Arial,sans-serif" font-size="10" font-weight="400" text-anchor="middle" fill="#111827">0.873</text>
<polyline fill="none" stroke="#059669" stroke-width="2.5" points="482.00,225.50 546.50,292.60 611.00,307.29 740.00,271.54"/>
<text x="482.00" y="560.00" font-family="Inter,Arial,sans-serif" font-size="11" font-weight="400" text-anchor="middle" fill="#111827">0</text>
<text x="740.00" y="560.00" font-family="Inter,Arial,sans-serif" font-size="11" font-weight="400" text-anchor="middle" fill="#111827">20%</text>
<text x="476.00" y="158.00" font-family="Inter,Arial,sans-serif" font-size="10" font-weight="400" text-anchor="end" fill="#6b7280">0.950</text>
<text x="476.00" y="540.00" font-family="Inter,Arial,sans-serif" font-size="10" font-weight="400" text-anchor="end" fill="#6b7280">0.700</text>
<rect x="820" y="100" width="340" height="500" rx="8" fill="#ffffff" stroke="#e5e7eb"/>
<text x="838.00" y="128.00" font-family="Inter,Arial,sans-serif" font-size="15" font-weight="700" text-anchor="start" fill="#111827">(c) Contrarian conservative shift</text>
<line x1="872" y1="536.00" x2="1130" y2="536.00" stroke="#d1d5db" stroke-width="1"/>
<line x1="872" y1="154" x2="872" y2="536" stroke="#111827" stroke-width="1"/>
<line x1="872" y1="536" x2="1130" y2="536" stroke="#111827" stroke-width="1"/>
<rect x="890.92" y="453.36" width="48.16" height="82.64" rx="3" fill="#ea580c"/>
<text x="915.00" y="560.00" font-family="Inter,Arial,sans-serif" font-size="11" font-weight="400" text-anchor="middle" fill="#111827">GPT-5.5</text>
<text x="915.00" y="445.36" font-family="Inter,Arial,sans-serif" font-size="10" font-weight="400" text-anchor="middle" fill="#111827">0.035</text>
<rect x="976.92" y="214.61" width="48.16" height="321.39" rx="3" fill="#ea580c"/>
<text x="1001.00" y="560.00" font-family="Inter,Arial,sans-serif" font-size="11" font-weight="400" text-anchor="middle" fill="#111827">Gemini</text>
<text x="1001.00" y="206.61" font-family="Inter,Arial,sans-serif" font-size="10" font-weight="400" text-anchor="middle" fill="#111827">0.135</text>
<rect x="1062.92" y="297.25" width="48.16" height="238.75" rx="3" fill="#ea580c"/>
<text x="1087.00" y="560.00" font-family="Inter,Arial,sans-serif" font-size="11" font-weight="400" text-anchor="middle" fill="#111827">Claude</text>
<text x="1087.00" y="289.25" font-family="Inter,Arial,sans-serif" font-size="10" font-weight="400" text-anchor="middle" fill="#111827">0.100</text>
<text x="866.00" y="158.00" font-family="Inter,Arial,sans-serif" font-size="10" font-weight="400" text-anchor="end" fill="#6b7280">0.160</text>
<text x="866.00" y="540.00" font-family="Inter,Arial,sans-serif" font-size="10" font-weight="400" text-anchor="end" fill="#6b7280">0.000</text>
</svg>